<?xml version="1.0" encoding="UTF-8" standalone="no"?>
<svg width="40px" height="40px" viewBox="0 0 40 40" version="1.1" xmlns="http://www.w3.org/2000/svg" xmlns:xlink="http://www.w3.org/1999/xlink">
    <g stroke="none" stroke-width="1" fill="none" >
        <path d="M34.3485811,0 L37.4745541,0 C37.9166892,0 38.3056351,0.160675676 38.6369595,0.482027027 C38.9693919,0.803378378 39.1367162,1.19675676 39.1367162,1.66216216 C39.1367162,2.12645946 38.9693919,2.52094595 38.6369595,2.84118919 C38.3056351,3.16364865 37.9166892,3.32432432 37.4745541,3.32432432 L35.6794189,3.32432432 L28.9964189,35.2710811 C28.9520946,35.3597297 28.8867162,35.4760811 28.7980676,35.6201351 C28.7083108,35.7641892 28.4988784,35.9581081 28.1653378,36.2007838 C27.8329054,36.4456757 27.4672297,36.5675676 27.0683108,36.5675676 L26.0377703,36.5675676 L26.0377703,38.2297297 C26.0377703,38.672973 25.8770946,39.0608108 25.5557432,39.3921351 C25.2355,39.7245676 24.8410135,39.8918919 24.3756081,39.8918919 C23.9102027,39.8918919 23.5168243,39.7245676 23.1965811,39.3921351 C22.8741216,39.0608108 22.7134459,38.672973 22.7134459,38.2297297 L22.7134459,36.5675676 L12.740473,36.5675676 L12.740473,38.2297297 C12.740473,38.672973 12.5797973,39.0608108 12.2584459,39.3921351 C11.9382027,39.7245676 11.5437162,39.8918919 11.0783108,39.8918919 C10.6129054,39.8918919 10.219527,39.7245676 9.89928378,39.3921351 C9.57682432,39.0608108 9.41614865,38.672973 9.41614865,38.2297297 L9.41614865,36.5675676 L7.75398649,36.5675676 C7.28858108,36.5675676 6.8952027,36.4002432 6.57495946,36.0678108 C6.2525,35.7364865 6.09182432,35.3486486 6.09182432,34.9054054 C6.09182432,34.44 6.2525,34.0466216 6.57495946,33.7252703 C6.8952027,33.4039189 7.28858108,33.2432432 7.75398649,33.2432432 L25.5391216,33.2432432 L27.1359054,26.5945946 L6.09182432,26.5945946 C5.38263514,26.5945946 4.77871622,26.3618919 4.28117568,25.8964865 C3.78141892,25.4310811 3.47668919,24.9545946 3.36587838,24.467027 L0.0415540541,8.67648649 C-0.0692567568,8.14459459 0.0415540541,7.67918919 0.373986486,7.27916216 C0.683148649,6.85918919 1.11641892,6.64864865 1.67047297,6.64864865 L31.457527,6.64864865 L32.7196622,1.26324324 C32.830473,0.886486486 33.035473,0.580648649 33.3346622,0.347945946 C33.6349595,0.116351351 33.9729324,0 34.3485811,0 L34.3485811,0 Z"  fill="#9B9B9B"></path>
    </g>
</svg>
