<?xml version="1.0" encoding="UTF-8" standalone="no"?>
<svg width="28px" height="28px" viewBox="0 0 28 28" version="1.1" xmlns="http://www.w3.org/2000/svg" xmlns:xlink="http://www.w3.org/1999/xlink">
    <g stroke="none" stroke-width="1" fill="none" >
        <path d="M6.97654941,1.8760469 C9.12618649,0.625348967 11.4673367,0 14,0 C16.533445,0 18.8738135,0.625348967 21.0242323,1.8760469 C23.1730877,3.12674484 24.8740369,4.82691234 26.1239531,6.97654941 C27.374651,9.12618649 28,11.4673367 28,14 C28,16.5326633 27.374651,18.8738135 26.1239531,21.0234506 C24.8740369,23.1730877 23.1730877,24.8732552 21.0242323,26.1239531 C18.8738135,27.374651 16.533445,28 14,28 C11.4673367,28 9.12618649,27.374651 6.97654941,26.1239531 C4.82691234,24.8732552 3.12674484,23.1730877 1.87682859,21.0234506 C0.625348967,18.8738135 0,16.5326633 0,14 C0,11.4673367 0.625348967,9.12618649 1.87682859,6.97654941 C3.12674484,4.82691234 4.82691234,3.12674484 6.97654941,1.8760469 C6.97654941,1.8760469 4.82691234,3.12674484 6.97654941,1.8760469 L6.97654941,1.8760469 Z M9.30988275,11.6549414 L9.30988275,14 L11.6549414,14 L11.6549414,18.6901173 L9.30988275,18.6901173 L9.30988275,21.0351759 L18.6901173,21.0351759 L18.6901173,18.6901173 L16.3450586,18.6901173 L16.3450586,11.6549414 L9.30988275,11.6549414 L9.30988275,11.6549414 Z M11.6549414,9.30988275 L16.3450586,9.30988275 L16.3450586,6.96482412 L11.6549414,6.96482412 L11.6549414,9.30988275 L11.6549414,9.30988275 Z" fill="#9B9B9B"></path>
    </g>
</svg>
